<?xml version="1.0" encoding="UTF-8" standalone="no"?>
<!-- Generator: Adobe Illustrator 16.0.0, SVG Export Plug-In . SVG Version: 6.00 Build 0)  -->

<svg
   xmlns:dc="http://purl.org/dc/elements/1.1/"
   xmlns:cc="http://creativecommons.org/ns#"
   xmlns:rdf="http://www.w3.org/1999/02/22-rdf-syntax-ns#"
   xmlns:svg="http://www.w3.org/2000/svg"
   xmlns="http://www.w3.org/2000/svg"
   xmlns:sodipodi="http://sodipodi.sourceforge.net/DTD/sodipodi-0.dtd"
   xmlns:inkscape="http://www.inkscape.org/namespaces/inkscape"
   version="1.1"
   id="Layer_1"
   x="0px"
   y="0px"
   width="45.5625"
   height="45.5625"
   viewBox="0 0 45.562501 45.562501"
   enable-background="new 0 0 283.46 283.46"
   xml:space="preserve"
   inkscape:version="0.48.4 r"
   sodipodi:docname="arrow.svg"><metadata
     id="metadata17"><rdf:RDF><cc:Work
         rdf:about=""><dc:format>image/svg+xml</dc:format><dc:type
           rdf:resource="http://purl.org/dc/dcmitype/StillImage" /></cc:Work></rdf:RDF></metadata><defs
     id="defs15" /><sodipodi:namedview
     pagecolor="#ffffff"
     bordercolor="#666666"
     borderopacity="1"
     objecttolerance="10"
     gridtolerance="10"
     guidetolerance="10"
     inkscape:pageopacity="0"
     inkscape:pageshadow="2"
     inkscape:window-width="1600"
     inkscape:window-height="878"
     id="namedview13"
     showgrid="false"
     fit-margin-top="0"
     fit-margin-left="0"
     fit-margin-right="0"
     fit-margin-bottom="0"
     inkscape:zoom="5.7270655"
     inkscape:cx="4.1629046"
     inkscape:cy="28.035784"
     inkscape:window-x="-8"
     inkscape:window-y="-8"
     inkscape:window-maximized="1"
     inkscape:current-layer="Layer_1" /><g
     id="g3"
     transform="translate(-62.25,-54.3125)"><path
       clip-rule="evenodd"
       d="m 75.582,86.36 c 0,-6.176 0,-12.354 -10e-4,-18.533 7.339,0 14.679,0 22.02,-0.001 0.001,6.177 0.001,12.355 0.001,18.535 C 90.263,86.36 82.923,86.36 75.582,86.36 z m 0.122,-0.119 C 83.03,83.157 90.16,80.157 97.438,77.094 90.157,74.03 83.019,71.026 75.707,67.949 c 1.253,2.954 2.412,5.718 3.604,8.467 0.205,0.472 0.221,0.856 0.012,1.335 -1.197,2.752 -2.358,5.52 -3.619,8.49 z"
       id="path5"
       inkscape:connector-curvature="0"
       style="fill:#ffffff;fill-rule:evenodd" /><path
       clip-rule="evenodd"
       d="m 75.704,86.241 c 1.261,-2.97 2.422,-5.737 3.619,-8.49 0.208,-0.479 0.193,-0.863 -0.012,-1.335 -1.192,-2.75 -2.351,-5.513 -3.604,-8.467 7.312,3.077 14.45,6.081 21.731,9.145 -7.278,3.063 -14.408,6.063 -21.734,9.147 z"
       id="path7"
       inkscape:connector-curvature="0"
       style="fill-rule:evenodd" /></g><g
     id="g9"
     transform="translate(-62.25,-54.3125)"
     style="stroke:#000000;stroke-width:3;stroke-miterlimit:4;stroke-opacity:1;stroke-dasharray:none"><circle
       stroke-miterlimit="10"
       cx="85.032997"
       cy="77.093002"
       r="21.271"
       id="circle11"
       sodipodi:cx="85.032997"
       sodipodi:cy="77.093002"
       sodipodi:rx="21.271"
       sodipodi:ry="21.271"
       style="fill:none;stroke:#000000;stroke-width:3;stroke-miterlimit:4;stroke-opacity:1;stroke-dasharray:none"
       d="m 106.304,77.093002 c 0,11.747649 -9.523354,21.271 -21.271003,21.271 -11.747649,0 -21.271,-9.523351 -21.271,-21.271 0,-11.747649 9.523351,-21.271 21.271,-21.271 11.747649,0 21.271003,9.523351 21.271003,21.271 z" /></g></svg>