<?xml version="1.0" encoding="UTF-8" standalone="no"?>
<!-- Generator: Adobe Illustrator 16.0.0, SVG Export Plug-In . SVG Version: 6.00 Build 0)  -->

<svg
   xmlns:dc="http://purl.org/dc/elements/1.1/"
   xmlns:cc="http://creativecommons.org/ns#"
   xmlns:rdf="http://www.w3.org/1999/02/22-rdf-syntax-ns#"
   xmlns:svg="http://www.w3.org/2000/svg"
   xmlns="http://www.w3.org/2000/svg"
   xmlns:sodipodi="http://sodipodi.sourceforge.net/DTD/sodipodi-0.dtd"
   xmlns:inkscape="http://www.inkscape.org/namespaces/inkscape"
   version="1.1"
   id="Layer_1"
   x="0px"
   y="0px"
   width="31.465px"
   height="23.519px"
   viewBox="0 0 31.465 23.519"
   style="enable-background:new 0 0 31.465 23.519;"
   xml:space="preserve"
   inkscape:version="0.48.4 r"
   sodipodi:docname="book.svg"
   inkscape:export-filename="C:\Users\Siem\sbnedkov@gmail.com\_projects\vening-meinesz\data\XVIII\images\icons\book.png"
   inkscape:export-xdpi="245.46001"
   inkscape:export-ydpi="245.46001"><metadata
     id="metadata71"><rdf:RDF><cc:Work
         rdf:about=""><dc:format>image/svg+xml</dc:format><dc:type
           rdf:resource="http://purl.org/dc/dcmitype/StillImage" /><dc:title></dc:title></cc:Work></rdf:RDF></metadata><defs
     id="defs69" /><sodipodi:namedview
     pagecolor="#ffffff"
     bordercolor="#666666"
     borderopacity="1"
     objecttolerance="10"
     gridtolerance="10"
     guidetolerance="10"
     inkscape:pageopacity="0"
     inkscape:pageshadow="2"
     inkscape:window-width="1002"
     inkscape:window-height="706"
     id="namedview67"
     showgrid="false"
     inkscape:zoom="9.1848085"
     inkscape:cx="15.7325"
     inkscape:cy="11.7595"
     inkscape:window-x="205"
     inkscape:window-y="77"
     inkscape:window-maximized="0"
     inkscape:current-layer="Layer_1" /><g
     id="g3"
     transform="scale(0.74575735,1)"><path
       d="M 30.22,3.037 V 1.055 L 29.934,0.942 C 29.835,0.905 27.507,0 24.399,0 21.073,0 18.205,1.014 15.872,3.015 13.541,1.014 10.673,0 7.346,0 4.238,0 1.91,0.905 1.813,0.943 L 1.527,1.055 V 2.891 C 0.586,3.067 0,3.382 0,3.897 0,6.573 0,22.814 0,22.814 h 13.934 c 0.481,0.431 1.187,0.705 1.974,0.705 0.788,0 1.492,-0.273 1.976,-0.705 h 13.582 c 0,0 0,-17.979 0,-18.917 C 31.465,3.478 30.991,3.205 30.22,3.037 z M 15.724,21.323 C 14.566,20.845 10.581,19.33 6.592,19.33 c -1.576,0 -2.973,0.242 -4.163,0.719 V 1.681 C 3.122,1.449 5.016,0.902 7.346,0.902 c 3.063,0 5.695,0.927 7.847,2.734 V 14.6 l 0.531,-0.585 v 7.308 z m 13.592,-1.269 c -1.278,-0.513 -2.745,-0.772 -4.37,-0.772 -3.987,0 -7.783,1.528 -8.924,2.031 V 14.015 L 16.553,14.6 V 3.636 c 2.15,-1.807 4.783,-2.734 7.846,-2.734 2.323,0 4.222,0.548 4.917,0.779 v 18.373 z"
       id="path5"
       inkscape:connector-curvature="0" /><path
       d="m 9.769,4.678 c 2.135,0.41 3.59,1.197 3.615,1.21 L 13.738,5.25 C 13.633,5.19 12.061,4.338 9.768,3.922 v 0.756 z"
       id="path7"
       inkscape:connector-curvature="0" /><path
       d="m 9.769,6.748 c 2.135,0.409 3.59,1.197 3.615,1.211 L 13.738,7.32 C 13.633,7.26 12.061,6.408 9.768,5.993 v 0.755 z"
       id="path9"
       inkscape:connector-curvature="0" /><path
       d="m 9.769,8.693 c 2.135,0.41 3.59,1.197 3.615,1.211 L 13.738,9.265 C 13.633,9.204 12.061,8.353 9.768,7.938 v 0.755 z"
       id="path11"
       inkscape:connector-curvature="0" /><path
       d="m 9.769,10.825 c 2.135,0.41 3.59,1.198 3.615,1.211 l 0.354,-0.638 c -0.105,-0.06 -1.677,-0.913 -3.97,-1.328 v 0.755 z"
       id="path13"
       inkscape:connector-curvature="0" /><path
       d="m 4.216,12.219 0.188,0.707 c 4.705,-1.246 8.938,1.063 8.98,1.086 l 0.354,-0.639 C 13.558,13.271 9.212,10.896 4.216,12.219 z"
       id="path15"
       inkscape:connector-curvature="0" /><path
       d="m 4.216,14.248 0.188,0.707 c 4.705,-1.248 8.938,1.061 8.98,1.085 l 0.354,-0.638 C 13.558,15.299 9.212,12.925 4.216,14.248 z"
       id="path17"
       inkscape:connector-curvature="0" /><path
       d="m 4.216,16.282 0.188,0.707 c 4.705,-1.249 8.938,1.062 8.98,1.084 l 0.354,-0.638 C 13.558,17.333 9.212,14.958 4.216,16.282 z"
       id="path19"
       inkscape:connector-curvature="0" /><path
       d="M 18.577,5.943 C 18.621,5.92 22.853,3.611 27.557,4.859 L 27.745,4.152 C 22.749,2.828 18.403,5.204 18.221,5.306 l 0.356,0.637 z"
       id="path21"
       inkscape:connector-curvature="0" /><path
       d="m 18.222,7.375 0.355,0.638 C 18.621,7.99 22.853,5.68 27.557,6.929 L 27.745,6.221 C 22.75,4.897 18.404,7.273 18.222,7.375 z"
       id="path23"
       inkscape:connector-curvature="0" /><path
       d="m 18.222,9.319 0.355,0.639 c 0.044,-0.024 4.276,-2.332 8.98,-1.086 L 27.745,8.166 C 22.75,6.843 18.404,9.218 18.222,9.319 z"
       id="path25"
       inkscape:connector-curvature="0" /><path
       d="m 18.222,11.452 0.355,0.638 c 0.044,-0.023 4.276,-2.333 8.98,-1.085 l 0.188,-0.707 C 22.75,8.973 18.404,11.35 18.222,11.452 z"
       id="path27"
       inkscape:connector-curvature="0" /><path
       d="m 18.222,13.427 0.355,0.639 c 0.044,-0.024 4.276,-2.332 8.98,-1.085 l 0.188,-0.708 c -4.995,-1.322 -9.341,1.052 -9.523,1.154 z"
       id="path29"
       inkscape:connector-curvature="0" /><path
       d="m 18.222,15.456 0.355,0.638 c 0.044,-0.023 4.276,-2.332 8.98,-1.085 l 0.188,-0.706 c -4.995,-1.324 -9.341,1.05 -9.523,1.153 z"
       id="path31"
       inkscape:connector-curvature="0" /><path
       d="m 18.222,17.49 0.355,0.637 c 0.044,-0.022 4.276,-2.333 8.98,-1.084 l 0.188,-0.707 c -4.995,-1.324 -9.341,1.052 -9.523,1.154 z"
       id="path33"
       inkscape:connector-curvature="0" /><path
       d="M 8.978,10.696 V 3.799 c 0,0 -1.174,-0.134 -2.381,-0.102 -1.205,0.033 -2.381,0.4 -2.381,0.4 v 6.896 c 0,0 0.983,-0.291 2.251,-0.383 1.266,-0.092 2.511,0.086 2.511,0.086 z"
       id="path35"
       inkscape:connector-curvature="0" /></g><g
     id="g37" /><g
     id="g39" /><g
     id="g41" /><g
     id="g43" /><g
     id="g45" /><g
     id="g47" /><g
     id="g49" /><g
     id="g51" /><g
     id="g53" /><g
     id="g55" /><g
     id="g57" /><g
     id="g59" /><g
     id="g61" /><g
     id="g63" /><g
     id="g65" /></svg>