<?xml version="1.0" encoding="UTF-8" standalone="no"?>
<!-- Generator: Adobe Illustrator 15.0.0, SVG Export Plug-In . SVG Version: 6.00 Build 0)  -->

<svg
   xmlns:dc="http://purl.org/dc/elements/1.1/"
   xmlns:cc="http://creativecommons.org/ns#"
   xmlns:rdf="http://www.w3.org/1999/02/22-rdf-syntax-ns#"
   xmlns:svg="http://www.w3.org/2000/svg"
   xmlns="http://www.w3.org/2000/svg"
   xmlns:sodipodi="http://sodipodi.sourceforge.net/DTD/sodipodi-0.dtd"
   xmlns:inkscape="http://www.inkscape.org/namespaces/inkscape"
   version="1.1"
   id="Layer_1"
   x="0px"
   y="0px"
   width="64px"
   height="64px"
   viewBox="0 0 64 64"
   enable-background="new 0 0 64 64"
   xml:space="preserve"
   inkscape:version="0.48.4 r"
   sodipodi:docname="science.png"
   inkscape:export-filename="C:\Users\Siem\sbnedkov@gmail.com\_projects\vening-meinesz\assets\demo\2D\resources\images\icons\science.png"
   inkscape:export-xdpi="114.07822"
   inkscape:export-ydpi="114.07822"><metadata
     id="metadata13"><rdf:RDF><cc:Work
         rdf:about=""><dc:format>image/svg+xml</dc:format><dc:type
           rdf:resource="http://purl.org/dc/dcmitype/StillImage" /><dc:title></dc:title></cc:Work></rdf:RDF></metadata><defs
     id="defs11" /><sodipodi:namedview
     pagecolor="#ffffff"
     bordercolor="#666666"
     borderopacity="1"
     objecttolerance="10"
     gridtolerance="10"
     guidetolerance="10"
     inkscape:pageopacity="0"
     inkscape:pageshadow="2"
     inkscape:window-width="1152"
     inkscape:window-height="755"
     id="namedview9"
     showgrid="false"
     inkscape:zoom="3.6875"
     inkscape:cx="-12.610169"
     inkscape:cy="32"
     inkscape:window-x="0"
     inkscape:window-y="0"
     inkscape:window-maximized="0"
     inkscape:current-layer="Layer_1" /><rect
     style="fill:#000000;fill-opacity:1;stroke:none"
     id="rect3769"
     width="38.237286"
     height="21.694914"
     x="11.661017"
     y="15.457626" /><path
     d="m 31.999,2.81 c -13.866,0 -25.146,10.238 -25.146,22.822 0,7.488 4.044,14.493 10.823,18.76 0.258,7.721 -2.366,14.465 -2.392,14.53 L 14.395,61.191 32.69,48.439 C 46.183,48.103 57.147,37.885 57.147,25.631 57.147,13.048 45.864,2.81 31.999,2.81 z m -12.22,27.734 c -2.65,0 -4.806,-2.156 -4.806,-4.806 0,-2.65 2.156,-4.806 4.806,-4.806 2.651,0 4.808,2.156 4.808,4.806 0,2.65 -2.156,4.806 -4.808,4.806 z m 12.22,0 c -2.65,0 -4.806,-2.156 -4.806,-4.806 0,-2.65 2.156,-4.806 4.806,-4.806 2.652,0 4.808,2.156 4.808,4.806 0,2.65 -2.157,4.806 -4.808,4.806 z m 12.456,0 c -2.65,0 -4.807,-2.156 -4.807,-4.806 0,-2.65 2.156,-4.806 4.807,-4.806 2.652,0 4.809,2.156 4.809,4.806 0,2.65 -2.157,4.806 -4.809,4.806 z"
     id="path7"
     inkscape:connector-curvature="0"
     style="stroke:none;stroke-opacity:1;fill:#ffffff;fill-opacity:1" /></svg>