<?xml version="1.0" encoding="UTF-8" standalone="no"?>
<!-- Generator: Adobe Illustrator 16.0.4, SVG Export Plug-In . SVG Version: 6.00 Build 0)  -->

<svg
   xmlns:dc="http://purl.org/dc/elements/1.1/"
   xmlns:cc="http://creativecommons.org/ns#"
   xmlns:rdf="http://www.w3.org/1999/02/22-rdf-syntax-ns#"
   xmlns:svg="http://www.w3.org/2000/svg"
   xmlns="http://www.w3.org/2000/svg"
   xmlns:sodipodi="http://sodipodi.sourceforge.net/DTD/sodipodi-0.dtd"
   xmlns:inkscape="http://www.inkscape.org/namespaces/inkscape"
   version="1.1"
   id="Layer_1"
   x="0px"
   y="0px"
   width="24px"
   height="24px"
   viewBox="0 0 24 24"
   enable-background="new 0 0 24 24"
   xml:space="preserve"
   inkscape:version="0.48.4 r"
   sodipodi:docname="science.svg"
   inkscape:export-filename="C:\Users\Siem\sbnedkov@gmail.com\_projects\vening-meinesz\data\XVIII\images\icons\science.png"
   inkscape:export-xdpi="240"
   inkscape:export-ydpi="240"><metadata
     id="metadata9"><rdf:RDF><cc:Work
         rdf:about=""><dc:format>image/svg+xml</dc:format><dc:type
           rdf:resource="http://purl.org/dc/dcmitype/StillImage" /><dc:title></dc:title></cc:Work></rdf:RDF></metadata><defs
     id="defs7" /><sodipodi:namedview
     pagecolor="#ffffff"
     bordercolor="#666666"
     borderopacity="1"
     objecttolerance="10"
     gridtolerance="10"
     guidetolerance="10"
     inkscape:pageopacity="0"
     inkscape:pageshadow="2"
     inkscape:window-width="1600"
     inkscape:window-height="848"
     id="namedview5"
     showgrid="false"
     inkscape:zoom="9.8333333"
     inkscape:cx="11.898305"
     inkscape:cy="12"
     inkscape:window-x="-8"
     inkscape:window-y="-8"
     inkscape:window-maximized="1"
     inkscape:current-layer="Layer_1" /><path
     style="fill:#ffffff;fill-opacity:1;stroke:none"
     d="M 16.9925,0.71186439 C 16.655607,1.4418079 0.85525915,16.779661 0.85525915,16.779661 L 7.4237289,22.443389 22.334359,7.2072317 z"
     id="path3760"
     inkscape:connector-curvature="0"
     sodipodi:nodetypes="ccccc" /><path
     d="M17,0L0,17l7,7L24,7L17,0z M2.1,17l1.37-1.37l1.8,1.802l1.06-1.062l-1.8-1.802l1.74-1.738l3.3,3.3l1.061-1.062l-3.3-3.299  L9.02,10.08l1.75,1.75l1.061-1.061l-1.75-1.75L11.77,7.33l3.3,3.3l1.06-1.06l-3.3-3.3l1.738-1.739l1.802,1.8l1.062-1.061l-1.802-1.8  L17,2.1L21.9,7L7,21.9L2.1,17z"
     id="path3"
     style="fill:#000000;fill-opacity:1"
     inkscape:export-xdpi="240"
     inkscape:export-ydpi="240" /></svg>