<?xml version="1.0" encoding="UTF-8" standalone="no"?>
<!-- Generator: Adobe Illustrator 15.0.0, SVG Export Plug-In . SVG Version: 6.00 Build 0)  -->

<svg
   xmlns:dc="http://purl.org/dc/elements/1.1/"
   xmlns:cc="http://creativecommons.org/ns#"
   xmlns:rdf="http://www.w3.org/1999/02/22-rdf-syntax-ns#"
   xmlns:svg="http://www.w3.org/2000/svg"
   xmlns="http://www.w3.org/2000/svg"
   xmlns:sodipodi="http://sodipodi.sourceforge.net/DTD/sodipodi-0.dtd"
   xmlns:inkscape="http://www.inkscape.org/namespaces/inkscape"
   version="1.1"
   id="Layer_1"
   x="0px"
   y="0px"
   width="26px"
   height="26px"
   viewBox="0 0 26 26"
   enable-background="new 0 0 26 26"
   xml:space="preserve"
   inkscape:version="0.48.4 r"
   sodipodi:docname="wikipedia.svg"
   inkscape:export-filename="C:\Users\Siem\sbnedkov@gmail.com\_projects\vening-meinesz\data\XVIII\images\icons\wikipedia.png"
   inkscape:export-xdpi="221.53999"
   inkscape:export-ydpi="221.53999"><metadata
     id="metadata11"><rdf:RDF><cc:Work
         rdf:about=""><dc:format>image/svg+xml</dc:format><dc:type
           rdf:resource="http://purl.org/dc/dcmitype/StillImage" /><dc:title></dc:title></cc:Work></rdf:RDF></metadata><defs
     id="defs9" /><sodipodi:namedview
     pagecolor="#ffffff"
     bordercolor="#666666"
     borderopacity="1"
     objecttolerance="10"
     gridtolerance="10"
     guidetolerance="10"
     inkscape:pageopacity="0"
     inkscape:pageshadow="2"
     inkscape:window-width="1600"
     inkscape:window-height="848"
     id="namedview7"
     showgrid="false"
     inkscape:zoom="22.627417"
     inkscape:cx="12.872055"
     inkscape:cy="10.683"
     inkscape:window-x="-8"
     inkscape:window-y="-8"
     inkscape:window-maximized="1"
     inkscape:current-layer="Layer_1" /><rect
     style="fill:#000000;fill-opacity:1;stroke:#000000;stroke-width:0.72718006;stroke-linejoin:round;stroke-opacity:1"
     id="rect3756"
     width="21.849422"
     height="13.766533"
     x="2.0779037"
     y="8.1612587"
     ry="0" /><rect
     fill="none"
     width="26"
     height="26"
     id="rect3" /><path
     d="M21.125,0H4.875C2.182,0,0,2.182,0,4.875v16.25C0,23.818,2.182,26,4.875,26h16.25  C23.818,26,26,23.818,26,21.125V4.875C26,2.182,23.818,0,21.125,0z M24.25,8.828c0,0.138-0.111,0.25-0.25,0.25h-1.35l-6.122,13.03  c-0.04,0.086-0.127,0.143-0.223,0.144c-0.001,0-0.003,0-0.003,0c-0.095,0-0.182-0.053-0.224-0.138l-2.905-5.762l-3.135,5.769  c-0.045,0.083-0.125,0.129-0.227,0.131c-0.094-0.003-0.179-0.058-0.219-0.143L3.402,9.078H2c-0.138,0-0.25-0.112-0.25-0.25v-0.66  c0-0.138,0.112-0.25,0.25-0.25h4.993c0.138,0,0.25,0.112,0.25,0.25v0.66c0,0.138-0.112,0.25-0.25,0.25H5.918l4.272,9.854  l2.223-4.153l-2.818-5.7H8.917c-0.138,0-0.25-0.112-0.25-0.25v-0.66c0-0.138,0.112-0.25,0.25-0.25h3.693  c0.138,0,0.25,0.112,0.25,0.25v0.66c0,0.138-0.112,0.25-0.25,0.25h-0.65l1.621,3.547l1.93-3.547h-1.184  c-0.139,0-0.25-0.112-0.25-0.25v-0.66c0-0.138,0.111-0.25,0.25-0.25h3.588c0.139,0,0.25,0.112,0.25,0.25v0.66  c0,0.138-0.111,0.25-0.25,0.25h-0.787l-2.817,5.118l2.296,4.72l4.43-9.838h-1.404c-0.138,0-0.25-0.112-0.25-0.25v-0.66  c0-0.138,0.112-0.25,0.25-0.25H24c0.139,0,0.25,0.112,0.25,0.25V8.828z"
     id="path5"
     style="fill:#ffffff;fill-opacity:1;stroke:none;stroke-opacity:1"
     fill="#000000" /></svg>